<?xml version="1.0" encoding="UTF-8"?> <svg xmlns="http://www.w3.org/2000/svg" id="Ebene_2" viewBox="0 0 1448.02 453.31"><defs><style>.cls-1{fill:#29abe2;}.cls-1,.cls-2,.cls-3{stroke-width:0px;}.cls-2{fill:#e32947;}.cls-3{fill:#fff;}</style></defs><g id="Dark_BG_-_Farbe"><path class="cls-1" d="M91.05,269.94c3.23,4.06,6.59,8.17,10.07,12.33,4.02,4.8,8.1,9.53,12.23,14.2l109.27-19.8h0s41.9-7.6,41.9-7.6c2.11-9.38,7.81-17.65,15.85-22.96,8.4-5.55,18.55-7.53,28.51-5.38,20.08,4.33,33.1,24.2,28.67,44.52-6.25,28.7-42.76,40.02-63.8,17.64-1.47-1.57-2.81-3.26-4-5.07l-45.74,8.29h0s-87.22,15.81-87.22,15.81c14.87,15.57,30.66,31.18,46.97,46.8,17,16.29,34.32,32.38,51.68,48.45,33.19-30.7,66.08-61.4,95.58-92.03,30.06-31.22,58.87-63.25,80.3-100.41l36.91-6.89c-23.15,45.95-54.61,83.78-89.93,121.09-34.55,36.5-73.74,72.72-112.93,108.94-2.82,2.59-6.37,3.87-9.91,3.87s-7.13-1.3-9.92-3.87h0s-.07-.08-.07-.08h0c-35.08-32.41-70.15-64.82-101.86-97.4-31.73-32.6-60.05-65.32-81.55-98.29l-1.71-2.62,22.43-4.19.03.15,413.31-77.13c2.1-9.39,7.78-17.66,15.81-22.99,8.36-5.55,18.74-7.53,28.56-5.41,20,4.31,33.05,24.2,28.68,44.44-1.04,4.83-3.03,9.38-5.8,13.38-13.6,19.66-41.77,21.59-57.98,4.37-1.45-1.54-2.78-3.22-3.97-5.02l-390.36,72.85h0ZM316.31,267.27c-2.61-3.95-6.75-6.79-11.37-7.82-9.87-2.19-19.59,4.05-21.78,13.9-3.55,16,14.37,28.14,27.87,19.24,8.23-5.43,10.76-17.02,5.28-25.32h0ZM530.46,180.33c2.15-9.91-4.11-19.55-14.01-21.69-7.24-1.57-14.6,1.3-18.85,7.44-4.19,6.05-4.39,14.11-.38,20.31,4.04,6.22,11.46,9.41,18.76,8.08,7.23-1.32,12.92-6.97,14.48-14.13h0Z"></path><path class="cls-2" d="M414.82,139.38c-1.08,4.54-3,8.8-5.62,12.57-2.78,4.01-6.33,7.48-10.5,10.17-14.81,9.54-34.13,7.41-46.53-4.83-1.22-1.21-2.37-2.51-3.42-3.88L50.39,208.53l.04.08-29.9,5.5-.68-1.46c-6.31-13.48-11.27-27-14.65-40.57-3.39-13.61-5.2-27.27-5.2-40.98C0,96.13,15.36,63.42,40.22,39.18,85.23-4.74,154.14-15,206.18,25.53c10.42,8.12,20.27,18.32,29.26,30.81,8.99-12.49,18.84-22.69,29.26-30.81,30.91-24.07,69.27-31.41,106.89-20.79,22.16,6.26,42.62,18.37,59.08,34.43,12.49,12.19,22.76,26.7,29.8,42.77,9.65,22.04,11.83,42.83,9.46,66.59l-30.39,5.67c3.34-21.87,3.02-40.25-6.07-60.88-12.75-28.94-39.37-51.8-69.78-60.39-31.84-8.99-62.88-1.32-87.37,21.08-10.16,9.29-19.62,21.43-27.94,36.79-1.36,2.56-3.44,4.65-6,6.03-3.56,1.92-7.56,2.21-11.14,1.13-3.59-1.08-6.77-3.53-8.68-7.09-8.32-15.38-17.79-27.53-27.95-36.83-40.66-37.21-96.89-30.07-133.98,6.11-19.18,18.71-31.27,43.91-31.27,70.94,0,8.54.86,17.09,2.5,25.67,1.54,8.06,3.77,16.14,6.61,24.23l303.03-55.97c.39-2.54,1.04-5.02,1.93-7.4,6.46-17.27,24.65-27.42,42.91-23.48,20.36,4.39,33.4,24.71,28.49,45.25h0ZM393.83,120.8c-5.42-8.36-16.79-10.98-25.27-5.48-8.37,5.43-10.99,16.79-5.49,25.28,2.64,4.06,6.82,6.94,11.55,7.96,7.28,1.57,14.62-1.36,18.83-7.45,1.36-1.97,2.34-4.2,2.85-6.58,1.01-4.7.15-9.68-2.48-13.73h0Z"></path><path class="cls-3" d="M723.14,199.7c-3.13-6.25-7.14-11.48-12.03-15.71-4.9-4.22-10.35-7.64-16.34-10.26-6-2.62-11.99-4.94-17.99-6.97-6-2.03-11.49-4.05-16.47-6.08-4.98-2.03-8.99-4.43-12.03-7.22-3.04-2.79-4.56-6.37-4.56-10.77,0-4.9,2.03-8.65,6.08-11.27,4.05-2.62,9.54-3.93,16.47-3.93s12.88,1.35,18.37,4.05c5.49,2.7,10.93,6.84,16.34,12.41l26.09-26.09c-6.76-7.43-15.29-13.34-25.59-17.73-10.3-4.39-21.79-6.59-34.45-6.59s-23.05,2.07-32.68,6.21c-9.63,4.14-17.1,10.18-22.42,18.11-5.32,7.94-7.98,17.48-7.98,28.63,0,8.95,1.52,16.47,4.56,22.54s7.05,11.06,12.03,14.95c4.98,3.89,10.47,7.18,16.47,9.88,5.99,2.7,11.95,5.03,17.86,6.97,5.91,1.94,11.4,4.01,16.47,6.21,5.07,2.2,9.08,4.81,12.03,7.85,2.95,3.04,4.43,6.93,4.43,11.65,0,5.41-2.32,9.67-6.97,12.79-4.65,3.13-11.11,4.69-19.38,4.69-9.29,0-17.44-1.81-24.45-5.45-7.01-3.63-13.39-8.74-19.13-15.33l-25.84,25.84c8.61,9.8,18.2,17.06,28.75,21.79,10.55,4.73,23.26,7.09,38.12,7.09,21.62,0,38.51-4.85,50.66-14.57,12.16-9.71,18.24-23.09,18.24-40.15,0-9.46-1.56-17.31-4.69-23.56Z"></path><polygon class="cls-3" points="896.29 176.18 896.29 275.19 936.06 275.19 936.06 96.34 907.18 96.34 844.47 194.37 781.53 96.34 752.65 96.34 752.65 275.19 792.42 275.19 792.42 176.18 831.18 236.68 857.53 236.68 896.29 176.18"></polygon><path class="cls-3" d="M1027.5,96.34l-70.68,178.85h41.29l11.88-32.17h69.99l11.6,32.17h42.3l-70.17-178.85h-36.23ZM1021.97,210.59l23.43-63.47,22.89,63.47h-46.33Z"></path><path class="cls-3" d="M1255.49,183.99c-4.9-4.22-10.35-7.64-16.34-10.26-6-2.62-11.99-4.94-17.99-6.97-6-2.03-11.49-4.05-16.47-6.08-4.98-2.03-8.99-4.43-12.03-7.22-3.04-2.79-4.56-6.37-4.56-10.77,0-4.9,2.03-8.65,6.08-11.27,4.05-2.62,9.54-3.93,16.47-3.93s12.88,1.35,18.37,4.05c5.49,2.7,10.93,6.84,16.34,12.41l26.09-26.09c-6.76-7.43-15.29-13.34-25.59-17.73-10.3-4.39-21.79-6.59-34.45-6.59s-23.05,2.07-32.68,6.21c-9.63,4.14-17.1,10.18-22.42,18.11-5.32,7.94-7.98,17.48-7.98,28.63,0,8.95,1.52,16.47,4.56,22.54,3.04,6.08,7.05,11.06,12.03,14.95,4.98,3.89,10.47,7.18,16.47,9.88,5.99,2.7,11.95,5.03,17.86,6.97,5.91,1.94,11.4,4.01,16.47,6.21,5.07,2.2,9.08,4.81,12.03,7.85,2.95,3.04,4.43,6.93,4.43,11.65,0,5.41-2.32,9.67-6.97,12.79-4.65,3.13-11.11,4.69-19.38,4.69-9.29,0-17.44-1.81-24.45-5.45-7.01-3.63-13.39-8.74-19.13-15.33l-25.84,25.84c8.61,9.8,18.2,17.06,28.75,21.79,10.55,4.73,23.26,7.09,38.12,7.09,21.62,0,38.5-4.85,50.66-14.57,12.16-9.71,18.24-23.09,18.24-40.15,0-9.46-1.56-17.31-4.69-23.56-3.13-6.25-7.14-11.48-12.03-15.71Z"></path><polygon class="cls-3" points="1407.74 96.34 1407.74 166 1337.06 166 1337.06 96.34 1297.03 96.34 1297.03 275.19 1337.06 275.19 1337.06 200.71 1407.74 200.71 1407.74 275.19 1448.02 275.19 1448.02 96.34 1407.74 96.34"></polygon><polygon class="cls-3" points="676.81 384.27 617.49 384.27 617.49 335.33 601.73 335.33 601.73 451.63 617.49 451.63 617.49 398.68 676.81 398.68 676.81 451.63 692.56 451.63 692.56 335.33 676.81 335.33 676.81 384.27"></polygon><path class="cls-3" d="M791.6,434.62c-5.36,2.4-11.68,3.6-18.94,3.6-6.15,0-11.79-1.09-16.92-3.27-5.14-2.18-9.61-5.28-13.41-9.3-3.8-4.02-6.73-8.77-8.8-14.24-2.07-5.47-3.1-11.45-3.1-17.93s1.03-12.46,3.1-17.93c2.07-5.47,5-10.22,8.8-14.24,3.8-4.02,8.27-7.12,13.41-9.3,5.14-2.18,10.72-3.27,16.76-3.27,6.81,0,12.9,1.17,18.27,3.52,5.36,2.35,9.89,5.59,13.57,9.72l10.89-10.89c-5.36-5.36-11.51-9.61-18.43-12.74-6.93-3.13-15.03-4.69-24.3-4.69-8.27,0-15.98,1.54-23.12,4.61-7.15,3.07-13.35,7.32-18.6,12.74-5.25,5.42-9.33,11.76-12.23,19.02-2.91,7.26-4.36,15.08-4.36,23.46s1.45,16.03,4.36,23.29c2.9,7.26,7.01,13.63,12.32,19.1,5.3,5.47,11.53,9.75,18.69,12.82,7.15,3.07,14.91,4.61,23.29,4.61,9.05,0,17.18-1.57,24.38-4.69,7.21-3.13,13.49-7.43,18.85-12.9l-10.89-10.89c-3.69,4.13-8.21,7.4-13.57,9.8Z"></path><polygon class="cls-3" points="891.89 410.08 846.39 335.33 835.33 335.33 835.33 451.63 851.08 451.63 851.08 369.79 886.28 427.84 897.5 427.84 932.69 369.79 932.69 451.63 948.45 451.63 948.45 335.33 937.39 335.33 891.89 410.08"></polygon></g></svg> 